<?xml version="1.0" encoding="UTF-8" standalone="no"?>
<!-- Generator: Adobe Illustrator 16.0.0, SVG Export Plug-In . SVG Version: 6.00 Build 0)  -->

<svg
   xmlns:dc="http://purl.org/dc/elements/1.1/"
   xmlns:cc="http://creativecommons.org/ns#"
   xmlns:rdf="http://www.w3.org/1999/02/22-rdf-syntax-ns#"
   xmlns:svg="http://www.w3.org/2000/svg"
   xmlns="http://www.w3.org/2000/svg"
   xmlns:sodipodi="http://sodipodi.sourceforge.net/DTD/sodipodi-0.dtd"
   xmlns:inkscape="http://www.inkscape.org/namespaces/inkscape"
   version="1.1"
   id="Capa_1"
   x="0px"
   y="0px"
   width="284.929px"
   height="284.929px"
   viewBox="0 0 284.929 284.929"
   style="enable-background:new 0 0 284.929 284.929;"
   xml:space="preserve"
   inkscape:version="0.91 r13725"
   sodipodi:docname="angle-up.svg"><metadata
     id="metadata41"><rdf:RDF><cc:Work
         rdf:about=""><dc:format>image/svg+xml</dc:format><dc:type
           rdf:resource="http://purl.org/dc/dcmitype/StillImage" /></cc:Work></rdf:RDF></metadata><defs
     id="defs39" /><sodipodi:namedview
     pagecolor="#ffffff"
     bordercolor="#666666"
     borderopacity="1"
     objecttolerance="10"
     gridtolerance="10"
     guidetolerance="10"
     inkscape:pageopacity="0"
     inkscape:pageshadow="2"
     inkscape:window-width="1100"
     inkscape:window-height="636"
     id="namedview37"
     showgrid="false"
     inkscape:zoom="0.82827656"
     inkscape:cx="142.46449"
     inkscape:cy="142.46449"
     inkscape:window-x="0"
     inkscape:window-y="0"
     inkscape:window-maximized="0"
     inkscape:current-layer="Capa_1" /><g
     id="g3"
     transform="matrix(1,0,0,-1,0,284.929)"><path
       d="M 282.082,76.511 267.808,62.238 c -1.902,-1.906 -4.093,-2.856 -6.57,-2.856 -2.471,0 -4.661,0.95 -6.563,2.856 L 142.466,174.441 30.262,62.241 c -1.903,-1.906 -4.093,-2.856 -6.567,-2.856 -2.475,0 -4.665,0.95 -6.567,2.856 L 2.856,76.515 C 0.95,78.417 0,80.607 0,83.082 c 0,2.473 0.953,4.663 2.856,6.565 l 133.043,133.046 c 1.902,1.903 4.093,2.854 6.567,2.854 2.474,0 4.661,-0.951 6.562,-2.854 L 282.082,89.647 c 1.902,-1.903 2.847,-4.093 2.847,-6.565 0,-2.475 -0.945,-4.665 -2.847,-6.571 z"
       id="path5"
       inkscape:connector-curvature="0" /></g><g
     id="g7" /><g
     id="g9" /><g
     id="g11" /><g
     id="g13" /><g
     id="g15" /><g
     id="g17" /><g
     id="g19" /><g
     id="g21" /><g
     id="g23" /><g
     id="g25" /><g
     id="g27" /><g
     id="g29" /><g
     id="g31" /><g
     id="g33" /><g
     id="g35" /></svg>