<?xml version="1.0" encoding="iso-8859-1"?>
<!-- Generator: Adobe Illustrator 16.0.0, SVG Export Plug-In . SVG Version: 6.00 Build 0)  -->
<!DOCTYPE svg PUBLIC "-//W3C//DTD SVG 1.1//EN" "http://www.w3.org/Graphics/SVG/1.1/DTD/svg11.dtd">
<svg version="1.1" id="Capa_1" xmlns="http://www.w3.org/2000/svg" xmlns:xlink="http://www.w3.org/1999/xlink" x="0px" y="0px"
	 width="73.168px" height="73.168px" viewBox="0 0 73.168 73.168" style="enable-background:new 0 0 73.168 73.168;"
	 xml:space="preserve">
<g>
	<g id="Navigation">
		<g>
			<path d="M4.242,14.425h64.684c2.344,0,4.242-1.933,4.242-4.324c0-2.385-1.898-4.325-4.242-4.325H4.242
				C1.898,5.776,0,7.716,0,10.101C0,12.493,1.898,14.425,4.242,14.425z M68.926,32.259H4.242C1.898,32.259,0,34.2,0,36.584
				c0,2.393,1.898,4.325,4.242,4.325h64.684c2.344,0,4.242-1.933,4.242-4.325C73.168,34.2,71.27,32.259,68.926,32.259z
				 M68.926,58.742H4.242C1.898,58.742,0,60.683,0,63.067c0,2.393,1.898,4.325,4.242,4.325h64.684c2.344,0,4.242-1.935,4.242-4.325
				C73.168,60.683,71.27,58.742,68.926,58.742z"/>
		</g>
	</g>
</g>
<g>
</g>
<g>
</g>
<g>
</g>
<g>
</g>
<g>
</g>
<g>
</g>
<g>
</g>
<g>
</g>
<g>
</g>
<g>
</g>
<g>
</g>
<g>
</g>
<g>
</g>
<g>
</g>
<g>
</g>
</svg>
