<?xml version="1.0" encoding="iso-8859-1"?>
<!-- Generator: Adobe Illustrator 19.0.0, SVG Export Plug-In . SVG Version: 6.00 Build 0)  -->
<svg version="1.1" id="Capa_1" xmlns="http://www.w3.org/2000/svg" xmlns:xlink="http://www.w3.org/1999/xlink" x="0px" y="0px"
	 viewBox="0 0 471.235 471.235" style="enable-background:new 0 0 471.235 471.235;" xml:space="preserve">
<g>
	<g>
		<path style="fill:#010002;" d="M70.655,340.365c-36.217,0-65.467,29.315-65.467,65.424c0,36.153,29.25,65.424,65.467,65.424
			c36.131,0,65.403-29.272,65.403-65.424C136.036,369.68,106.786,340.365,70.655,340.365z"/>
		<path style="fill:#010002;" d="M5.188,0v78.086c211.76,4.249,382.687,177.7,382.687,390.517c0,0.884-0.043,1.79-0.043,2.632
			h78.151c0-0.884,0.065-1.747,0.065-2.632C466.026,212.753,260.003,4.249,5.188,0z"/>
		<path style="fill:#010002;" d="M5.188,156.496v78.129c125.434,4.185,226.191,107.444,226.191,233.978
			c0,0.884-0.022,1.79-0.086,2.632h78.151c0-0.841,0.086-1.747,0.086-2.632C309.508,299.036,173.677,160.745,5.188,156.496z"/>
	</g>
	<g>
	</g>
	<g>
	</g>
	<g>
	</g>
	<g>
	</g>
	<g>
	</g>
	<g>
	</g>
	<g>
	</g>
	<g>
	</g>
	<g>
	</g>
	<g>
	</g>
	<g>
	</g>
	<g>
	</g>
	<g>
	</g>
	<g>
	</g>
	<g>
	</g>
</g>
<g>
</g>
<g>
</g>
<g>
</g>
<g>
</g>
<g>
</g>
<g>
</g>
<g>
</g>
<g>
</g>
<g>
</g>
<g>
</g>
<g>
</g>
<g>
</g>
<g>
</g>
<g>
</g>
<g>
</g>
</svg>
