<?xml version="1.0" encoding="iso-8859-1"?>
<!-- Generator: Adobe Illustrator 19.0.0, SVG Export Plug-In . SVG Version: 6.00 Build 0)  -->
<svg version="1.1" id="Capa_1" xmlns="http://www.w3.org/2000/svg" xmlns:xlink="http://www.w3.org/1999/xlink" x="0px" y="0px"
	 viewBox="0 0 502.664 502.664" style="enable-background:new 0 0 502.664 502.664;" xml:space="preserve">
<g>
	<g>
		<g>
			<path style="fill:#010002;" d="M472.077,25.432H30.609C13.762,25.432,0,39.216,0,56.019v317.414
				c0,16.782,13.762,30.587,30.609,30.587h441.468c16.825,0,30.587-13.805,30.587-30.587V56.019
				C502.664,39.216,488.902,25.432,472.077,25.432z M464.376,350.935H38.288V68.336h426.088V350.935z"/>
			<polygon style="fill:#010002;" points="194.698,418.538 136.931,477.232 366.574,477.232 308.807,418.538 			"/>
			<path style="fill:#010002;" d="M103.346,294.269c11.282,0,20.471-9.168,20.471-20.449c0-2.049-0.604-3.904-1.165-5.781
				c26.165-21.096,72.392-58.284,93.466-74.527c3.322,2.351,7.183,4.034,11.562,4.034c3.645,0,6.881-1.208,9.836-2.869
				c13.546,11.519,36.584,31.105,52.935,45.018c-0.216,1.186-0.69,2.243-0.69,3.494c0,11.303,9.189,20.471,20.492,20.471
				s20.492-9.168,20.492-20.471c0-2.006-0.604-3.84-1.143-5.673l52.935-47.801c2.847,1.488,5.91,2.545,9.362,2.545
				c11.303,0,20.471-9.168,20.471-20.471s-9.168-20.471-20.471-20.471s-20.449,9.168-20.449,20.492c0,2.696,0.582,5.263,1.531,7.614
				c-14.798,13.352-37.619,33.974-51.856,46.83c-3.171-2.049-6.752-3.559-10.85-3.559c-4.832,0-9.06,1.92-12.554,4.702
				c-13.525-11.497-35.398-30.091-50.95-43.314c0.82-2.2,1.402-4.508,1.402-7.01c0-11.303-9.168-20.471-20.471-20.471
				s-20.471,9.168-20.471,20.471c0,2.502,0.604,4.832,1.424,7.032l-93.962,73.103c-3.279-2.243-7.054-3.883-11.325-3.883
				c-11.303,0-20.471,9.168-20.471,20.471C82.875,285.101,92.043,294.269,103.346,294.269z"/>
		</g>
	</g>
	<g>
	</g>
	<g>
	</g>
	<g>
	</g>
	<g>
	</g>
	<g>
	</g>
	<g>
	</g>
	<g>
	</g>
	<g>
	</g>
	<g>
	</g>
	<g>
	</g>
	<g>
	</g>
	<g>
	</g>
	<g>
	</g>
	<g>
	</g>
	<g>
	</g>
</g>
<g>
</g>
<g>
</g>
<g>
</g>
<g>
</g>
<g>
</g>
<g>
</g>
<g>
</g>
<g>
</g>
<g>
</g>
<g>
</g>
<g>
</g>
<g>
</g>
<g>
</g>
<g>
</g>
<g>
</g>
</svg>
